<svg id="visual" viewBox="0 0 900 300" width="900" height="300" xmlns="http://www.w3.org/2000/svg" xmlns:xlink="http://www.w3.org/1999/xlink" version="1.1"><rect x="0" y="0" width="900" height="300" fill="#202731"></rect><path d="M0 183L16.7 178.3C33.3 173.7 66.7 164.3 100 173.8C133.3 183.3 166.7 211.7 200 212.3C233.3 213 266.7 186 300 179C333.3 172 366.7 185 400 188C433.3 191 466.7 184 500 190.5C533.3 197 566.7 217 600 227.3C633.3 237.7 666.7 238.3 700 239.5C733.3 240.7 766.7 242.3 800 233.5C833.3 224.7 866.7 205.3 883.3 195.7L900 186L900 0L883.3 0C866.7 0 833.3 0 800 0C766.7 0 733.3 0 700 0C666.7 0 633.3 0 600 0C566.7 0 533.3 0 500 0C466.7 0 433.3 0 400 0C366.7 0 333.3 0 300 0C266.7 0 233.3 0 200 0C166.7 0 133.3 0 100 0C66.7 0 33.3 0 16.7 0L0 0Z" fill="#fa7268"></path><path d="M0 166L16.7 168.7C33.3 171.3 66.7 176.7 100 181C133.3 185.3 166.7 188.7 200 192.5C233.3 196.3 266.7 200.7 300 189.8C333.3 179 366.7 153 400 144.3C433.3 135.7 466.7 144.3 500 157.2C533.3 170 566.7 187 600 184C633.3 181 666.7 158 700 156.5C733.3 155 766.7 175 800 182.3C833.3 189.7 866.7 184.3 883.3 181.7L900 179L900 0L883.3 0C866.7 0 833.3 0 800 0C766.7 0 733.3 0 700 0C666.7 0 633.3 0 600 0C566.7 0 533.3 0 500 0C466.7 0 433.3 0 400 0C366.7 0 333.3 0 300 0C266.7 0 233.3 0 200 0C166.7 0 133.3 0 100 0C66.7 0 33.3 0 16.7 0L0 0Z" fill="#f3665b"></path><path d="M0 95L16.7 98.3C33.3 101.7 66.7 108.3 100 114.7C133.3 121 166.7 127 200 128.2C233.3 129.3 266.7 125.7 300 127.8C333.3 130 366.7 138 400 133.8C433.3 129.7 466.7 113.3 500 111.5C533.3 109.7 566.7 122.3 600 121.8C633.3 121.3 666.7 107.7 700 111.3C733.3 115 766.7 136 800 142.2C833.3 148.3 866.7 139.7 883.3 135.3L900 131L900 0L883.3 0C866.7 0 833.3 0 800 0C766.7 0 733.3 0 700 0C666.7 0 633.3 0 600 0C566.7 0 533.3 0 500 0C466.7 0 433.3 0 400 0C366.7 0 333.3 0 300 0C266.7 0 233.3 0 200 0C166.7 0 133.3 0 100 0C66.7 0 33.3 0 16.7 0L0 0Z" fill="#ec594d"></path><path d="M0 88L16.7 90.5C33.3 93 66.7 98 100 94C133.3 90 166.7 77 200 75.8C233.3 74.7 266.7 85.3 300 90.2C333.3 95 366.7 94 400 89C433.3 84 466.7 75 500 77.7C533.3 80.3 566.7 94.7 600 101.7C633.3 108.7 666.7 108.3 700 105.7C733.3 103 766.7 98 800 95.7C833.3 93.3 866.7 93.7 883.3 93.8L900 94L900 0L883.3 0C866.7 0 833.3 0 800 0C766.7 0 733.3 0 700 0C666.7 0 633.3 0 600 0C566.7 0 533.3 0 500 0C466.7 0 433.3 0 400 0C366.7 0 333.3 0 300 0C266.7 0 233.3 0 200 0C166.7 0 133.3 0 100 0C66.7 0 33.3 0 16.7 0L0 0Z" fill="#e54c3f"></path><path d="M0 41L16.7 45C33.3 49 66.7 57 100 58.7C133.3 60.3 166.7 55.7 200 51.8C233.3 48 266.7 45 300 47.7C333.3 50.3 366.7 58.7 400 60.3C433.3 62 466.7 57 500 51.5C533.3 46 566.7 40 600 40C633.3 40 666.7 46 700 46C733.3 46 766.7 40 800 39.7C833.3 39.3 866.7 44.7 883.3 47.3L900 50L900 0L883.3 0C866.7 0 833.3 0 800 0C766.7 0 733.3 0 700 0C666.7 0 633.3 0 600 0C566.7 0 533.3 0 500 0C466.7 0 433.3 0 400 0C366.7 0 333.3 0 300 0C266.7 0 233.3 0 200 0C166.7 0 133.3 0 100 0C66.7 0 33.3 0 16.7 0L0 0Z" fill="#dd3f31"></path></svg>