<svg id="visual" viewBox="0 0 900 300" width="900" height="300" xmlns="http://www.w3.org/2000/svg" xmlns:xlink="http://www.w3.org/1999/xlink" version="1.1"><rect x="0" y="0" width="900" height="300" fill="#202731"></rect><path d="M0 98L18.8 115.2C37.7 132.3 75.3 166.7 112.8 174.5C150.3 182.3 187.7 163.7 225.2 143C262.7 122.3 300.3 99.7 337.8 123C375.3 146.3 412.7 215.7 450.2 238.7C487.7 261.7 525.3 238.3 562.8 237.8C600.3 237.3 637.7 259.7 675.2 259.7C712.7 259.7 750.3 237.3 787.8 234.3C825.3 231.3 862.7 247.7 881.3 255.8L900 264L900 0L881.3 0C862.7 0 825.3 0 787.8 0C750.3 0 712.7 0 675.2 0C637.7 0 600.3 0 562.8 0C525.3 0 487.7 0 450.2 0C412.7 0 375.3 0 337.8 0C300.3 0 262.7 0 225.2 0C187.7 0 150.3 0 112.8 0C75.3 0 37.7 0 18.8 0L0 0Z" fill="#202731"></path><path d="M0 52L18.8 71C37.7 90 75.3 128 112.8 149.2C150.3 170.3 187.7 174.7 225.2 167.2C262.7 159.7 300.3 140.3 337.8 149.2C375.3 158 412.7 195 450.2 204.5C487.7 214 525.3 196 562.8 167.5C600.3 139 637.7 100 675.2 86C712.7 72 750.3 83 787.8 92.8C825.3 102.7 862.7 111.3 881.3 115.7L900 120L900 0L881.3 0C862.7 0 825.3 0 787.8 0C750.3 0 712.7 0 675.2 0C637.7 0 600.3 0 562.8 0C525.3 0 487.7 0 450.2 0C412.7 0 375.3 0 337.8 0C300.3 0 262.7 0 225.2 0C187.7 0 150.3 0 112.8 0C75.3 0 37.7 0 18.8 0L0 0Z" fill="#373860"></path><path d="M0 98L18.8 92.7C37.7 87.3 75.3 76.7 112.8 68.5C150.3 60.3 187.7 54.7 225.2 60.8C262.7 67 300.3 85 337.8 102.5C375.3 120 412.7 137 450.2 127.7C487.7 118.3 525.3 82.7 562.8 76.7C600.3 70.7 637.7 94.3 675.2 110.8C712.7 127.3 750.3 136.7 787.8 133.8C825.3 131 862.7 116 881.3 108.5L900 101L900 0L881.3 0C862.7 0 825.3 0 787.8 0C750.3 0 712.7 0 675.2 0C637.7 0 600.3 0 562.8 0C525.3 0 487.7 0 450.2 0C412.7 0 375.3 0 337.8 0C300.3 0 262.7 0 225.2 0C187.7 0 150.3 0 112.8 0C75.3 0 37.7 0 18.8 0L0 0Z" fill="#733c81"></path><path d="M0 75L18.8 81.5C37.7 88 75.3 101 112.8 103.3C150.3 105.7 187.7 97.3 225.2 98.2C262.7 99 300.3 109 337.8 97.8C375.3 86.7 412.7 54.3 450.2 56.2C487.7 58 525.3 94 562.8 109.3C600.3 124.7 637.7 119.3 675.2 105.5C712.7 91.7 750.3 69.3 787.8 67.7C825.3 66 862.7 85 881.3 94.5L900 104L900 0L881.3 0C862.7 0 825.3 0 787.8 0C750.3 0 712.7 0 675.2 0C637.7 0 600.3 0 562.8 0C525.3 0 487.7 0 450.2 0C412.7 0 375.3 0 337.8 0C300.3 0 262.7 0 225.2 0C187.7 0 150.3 0 112.8 0C75.3 0 37.7 0 18.8 0L0 0Z" fill="#bd2b84"></path><path d="M0 41L18.8 35.7C37.7 30.3 75.3 19.7 112.8 19C150.3 18.3 187.7 27.7 225.2 34.3C262.7 41 300.3 45 337.8 42.8C375.3 40.7 412.7 32.3 450.2 38.2C487.7 44 525.3 64 562.8 60.8C600.3 57.7 637.7 31.3 675.2 21.5C712.7 11.7 750.3 18.3 787.8 22.3C825.3 26.3 862.7 27.7 881.3 28.3L900 29L900 0L881.3 0C862.7 0 825.3 0 787.8 0C750.3 0 712.7 0 675.2 0C637.7 0 600.3 0 562.8 0C525.3 0 487.7 0 450.2 0C412.7 0 375.3 0 337.8 0C300.3 0 262.7 0 225.2 0C187.7 0 150.3 0 112.8 0C75.3 0 37.7 0 18.8 0L0 0Z" fill="#ff0066"></path></svg>